PathFileType	4	(X/Y/Z)	path1_18_0-549.trc
DataRate	CameraRate	NumFrames	NumMarkers	Units	OrigDataRate	OrigDataStartFrame	OrigNumFrames
30	30	8	22	m	30	68	549
Frame#	Time	Hip			RHip			RKnee			RAnkle			RBigToe			RSmallToe			RHeel			LHip			LKnee			LAnkle			LBigToe			LSmallToe			LHeel			Neck			Head			Nose			RShoulder			RElbow			RWrist			LShoulder			LElbow			LWrist		
		X1	Y1	Z1	X2	Y2	Z2	X3	Y3	Z3	X4	Y4	Z4	X5	Y5	Z5	X6	Y6	Z6	X7	Y7	Z7	X8	Y8	Z8	X9	Y9	Z9	X10	Y10	Z10	X11	Y11	Z11	X12	Y12	Z12	X13	Y13	Z13	X14	Y14	Z14	X15	Y15	Z15	X16	Y16	Z16	X17	Y17	Z17	X18	Y18	Z18	X19	Y19	Z19	X20	Y20	Z20	X21	Y21	Z21	X22	Y22	Z22
69	2.3	2.506924656555006	0.830483401980559	0.5996758184725106	2.512502648894343	0.7897685816131579	0.5212652602138697	2.498160716700608	0.45785189513926605	0.532274997511401	2.563020120071886	0.09589191830287723	0.570013946006236	2.361903972716122	0.016497780207932255	0.5338772242842414	2.3972985830139657	0.022248324618471423	0.47960708538992153	2.6134306703824612	0.030971651820874725	0.5736087372820292	2.498233092640581	0.7868440651450415	0.680446946117194	2.5051435711396306	0.439141853515308	0.6644548696579364	2.53583902042781	0.11175105811455117	0.6731625301008621	2.381446988035475	0.02046333233800967	0.6759623826721871	2.4115298791583277	0.024287993561587517	0.7322897149987935	2.5811382036295014	0.04249991943337768	0.6731600454620688	2.467473954884041	1.461775721656223	0.6198897407049975	2.4458082293146184	1.707990415564771	0.5603693849517664	2.3389222834970016	1.6053794097932497	0.5913914361336832	2.535249448139838	1.3626241638755883	0.44691751053442336	2.5277874690161286	1.0730971932871283	0.4020370927815767	2.5104292310303884	0.8403063522300203	0.40325754637532213	2.463074210321091	1.3416223981781419	0.788405191959906	2.5039119786019985	1.0660025708233414	0.8154479895765797	2.495755697807357	0.8322879337089767	0.8160284226025476
70	2.333333333333333	2.507072526624776	0.8303788964500246	0.5996178600059413	2.512337920048698	0.7895647591268365	0.5210803894196203	2.4985248455763185	0.4571549111377759	0.5330966836306595	2.5625782872881464	0.09578037334130644	0.5696135177002539	2.3622106009165935	0.016860711316205475	0.5353433621614452	2.397368442687476	0.02215996624997054	0.4796211654050738	2.6128643897097823	0.03092915870601886	0.5732263718233078	2.498409361892869	0.7869625661451198	0.6803416602307454	2.5060871242027996	0.4368376565424427	0.6613499094525142	2.5373246380576004	0.11118528471270188	0.6730456666173141	2.3817445092670058	0.02036608983995923	0.6761470783547194	2.4119284202872286	0.023469039701098506	0.7319941202569492	2.58265491863526	0.04188399744231502	0.6729329778087384	2.466865588953994	1.4615752379269162	0.619312863294318	2.446030109168915	1.7088557141499685	0.5574664315071404	2.338719998440266	1.605433820769873	0.5916498738736592	2.534817555275641	1.3625202743674516	0.44646330097589937	2.5268078333093897	1.07297747067883	0.40102755508366666	2.5097295981510794	0.8400936655066198	0.40253340316123887	2.463239579026876	1.3414312318896466	0.7883171497308592	2.5033189423457918	1.0659912369100195	0.8151675901703187	2.495434934442173	0.8318349640582181	0.8157671961181575
71	2.3666666666666667	2.5071913245642072	0.8302463107732146	0.5995999477928937	2.5121698042073315	0.7894113715983648	0.5210341620033655	2.49730096811354	0.4574054304079316	0.5317645053629398	2.561974029394977	0.09580378782382774	0.5691059774517883	2.362623855646033	0.01737562051233307	0.5374420613986138	2.397438795116091	0.022202573456149313	0.4795992148696676	2.6121476939156723	0.03111382904734184	0.5728189126775461	2.498577820661905	0.7870560686526613	0.6803970309262594	2.5070281323457877	0.4350631929260178	0.658585956097124	2.540040503206053	0.10941428074377223	0.6723873301122097	2.38229946668075	0.020279478578477082	0.6763249393233288	2.4124220369410416	0.022436148879803334	0.7315751931023157	2.5842337000982485	0.041356109352631655	0.6727332268570555	2.46595451819008	1.4609955976529034	0.6186459080702364	2.445784308969212	1.7094299375308326	0.5562630039578389	2.3384239526384154	1.6050420556033373	0.5915597676407255	2.5345194870681236	1.3622913126941807	0.44594642872503243	2.5251196383257266	1.0730624396635855	0.3989350745071499	2.5086535272067723	0.8401409541353408	0.40117296790133944	2.4635603190072133	1.3413006674598877	0.7882462070589134	2.5027537002443356	1.065911840280516	0.8148510925952063	2.495125173095009	0.8313901007410769	0.8154389592056946
72	2.4	2.5072677547225264	0.8300942467544079	0.5996034621844243	2.5120337316554497	0.7892811677198769	0.5210917893066364	2.495114969241629	0.4582969192176793	0.5290307492477727	2.5613909339670506	0.09591612037736574	0.5686150254303708	2.363180137969166	0.017946613197588494	0.539759268226715	2.3974432074844865	0.022358837139577516	0.4795759781821643	2.6114462951875774	0.03150573871763386	0.5724530070380227	2.4986960415308346	0.7871427283721978	0.6805900514709717	2.507606811628025	0.4343757920154207	0.6569558706501413	2.543552856653345	0.10656692635745042	0.6711882444497979	2.3829960979052096	0.020257395676453495	0.6764737568460157	2.4130322451625403	0.021469772567323242	0.7311821871144838	2.5854277351949633	0.040999495004194246	0.6725588255814507	2.464711631986761	1.459999977588932	0.6179705991527493	2.445193670423078	1.709784473473513	0.5558182543710829	2.3379873179300095	1.6043145207050293	0.5909708509642401	2.5343829593682177	1.3619816354395669	0.44549217155873927	2.5234223373173315	1.0732018880978398	0.39679520404725577	2.507599073795725	0.8402167558489942	0.39979201565322087	2.4639640155015914	1.3412836752981894	0.788189926780233	2.502354317124186	1.0657862451795672	0.8145651593933879	2.4948761947550784	0.8310312696093551	0.8151386636033028
73	2.433333333333333	2.5072582922346602	0.8299203376636879	0.5995940681961749	2.5119523484210493	0.7891792206828006	0.5212200728804492	2.493081644981441	0.45924928816348976	0.5263348947840711	2.5609991403767416	0.09606786447157172	0.5682704767921868	2.3637697190584124	0.018262254114528247	0.5416516311492608	2.3974042471079744	0.022520222221891543	0.4795261965855581	2.6109252585791407	0.03199481616716296	0.5721525125684128	2.498681338524915	0.7872515748393825	0.6808356483234702	2.5076227572452066	0.4348783080458476	0.6568213432515082	2.5471166624133144	0.10315613455361779	0.669643151687045	2.3836619918638426	0.020301524438172548	0.6765915827821327	2.4137471853995525	0.020982337240907596	0.7311160369463076	2.585988094886947	0.04078149899782292	0.6723945505419077	2.46305279689455	1.4585972557815179	0.6172950757440647	2.444485347786952	1.70998243082803	0.5556185394145639	2.337414426381265	1.6035464799859074	0.5901116133443862	2.5343710588850166	1.3617046133588124	0.44522753801157966	2.5221127397894425	1.0733019960846777	0.3951977235610511	2.5067893621324773	0.8401923585458271	0.39876518334127364	2.464280418339578	1.3413897846768732	0.7881404704110124	2.502180748110354	1.065643393922905	0.8143652790844366	2.494715860580236	0.830782720775883	0.8149764268123546
74	2.466666666666667	2.507127143465652	0.8297259220933287	0.5995521271532857	2.5119397962825447	0.78915327003193	0.5214223367320195	2.491976717202692	0.4598534546252777	0.5247237666285882	2.5608486511472477	0.09620174304822042	0.5681247025182204	2.3641614827717508	0.017972174991283025	0.5425456654453573	2.3973834050859804	0.022559281167136486	0.4794003955823079	2.610632503543516	0.032439076839778716	0.5718717472200985	2.498460737914103	0.7874079735186515	0.6810380020320722	2.507105397424801	0.43638022904923934	0.6582360368515483	2.5500175637998934	0.09984251384298311	0.6680721918697577	2.38411481823108	0.02036100369034602	0.6767044732063148	2.4144109428241824	0.021182497092269603	0.7315484261045404	2.5859210749311554	0.04059591699043758	0.6722643505017837	2.461338420528906	1.4572224487715277	0.616750950840202	2.4438410841386244	1.7100701635192492	0.5555487500240358	2.336767559592386	1.603010029838622	0.5892848232164007	2.5343833605736146	1.3615980512886012	0.44518634042941524	2.521249149860517	1.0733674798366923	0.3942326101318244	2.5062295019935186	0.840068852441142	0.39818731121868317	2.464365479662952	1.3416068342725376	0.7880819131426243	2.502191045772552	1.0655106840543476	0.8142593589248256	2.4946254072330323	0.8306169995042061	0.815013725713698
75	2.5	2.506865180876483	0.8295180566207827	0.5994696477566377	2.5119816371833132	0.7892214857708366	0.5216965914529841	2.492105873408498	0.4599091785624588	0.5246194498730805	2.5608696685457724	0.0962827102046194	0.5681223029399863	2.3641665803768834	0.016963901532515507	0.5422038985200727	2.397407167230487	0.02242094404432165	0.4791998827432826	2.6104961994787326	0.0327462983820225	0.5715441549458745	2.4980191623582937	0.7876037548987778	0.6811053345286213	2.5063116589064602	0.43838176305224447	0.6607167903618147	2.551728257597198	0.09730404862388892	0.6668163050643441	2.3842067743124375	0.020398431260820103	0.6768508937996711	2.4147808757764793	0.021838848861780207	0.7322772774311991	2.585328131588373	0.040384192674909766	0.6722164017500825	2.460488253948108	1.4567474929001687	0.6166895612937286	2.4433036812564795	1.7100727389312111	0.5555700490007145	2.3361325394708916	1.602769404853359	0.5886151147487096	2.5343221415289268	1.3617275615716367	0.44527184790913826	2.520749851212192	1.0734245904630149	0.3937636460687842	2.5058409579182457	0.839861872508183	0.39802814584833174	2.4642468234773642	1.3419005482319264	0.7880029611999468	2.502289660701425	1.065404465122332	0.814203827961048	2.4945558915529955	0.8304993415890716	0.8152100540843069
76	2.533333333333333	2.506490820975456	0.8293238721422475	0.599337194008106	2.5120113637560078	0.7893159237603953	0.5219652115402947	2.4934527347740585	0.45934550386200956	0.5259711974317655	2.560986478617039	0.0963092173552112	0.5681792983961448	2.363806655513081	0.015465063883141266	0.5408161620031751	2.3974558372878576	0.022133820655700326	0.47899257365167874	2.6104697824962226	0.032887192891825456	0.571176462445016	2.4973910857005865	0.7878043636877254	0.6809559659349296	2.5055888101539696	0.44014844929382896	0.6632258763831556	2.551794666637288	0.0962680977868034	0.6661795125364333	2.383840639782167	0.020442663587071336	0.6770607970615472	2.4146894898704527	0.022567540222553858	0.7329279452985105	2.584279103032817	0.04020655235136643	0.6722556269289198	2.461080512363787	1.4576488345663001	0.6173032141367538	2.442824240929549	1.7100005300789411	0.5555826674156483	2.335581658532796	1.602714149112412	0.5880873071843106	2.534145074747154	1.3620395434575985	0.44533209441756416	2.5204987307319118	1.0734568722818532	0.39360223930763283	2.5055890763171194	0.8395324041960093	0.39818139024188154	2.464111352238657	1.3422063599980811	0.7879065188955805	2.5023877814660365	1.0653138112442282	0.8141260586262333	2.494463731900142	0.8304278415352466	0.8154453748372287
